<?xml version="1.0" encoding="utf-8" ?><svg xmlns="http://www.w3.org/2000/svg" xmlns:xlink="http://www.w3.org/1999/xlink" width="736" height="736" viewBox="0 0 736 736"><path fill="#096" d="M366.728 153.167C368.262 153.126 370.644 153.11 371.87 154.104C379.748 160.486 387.919 169.135 395.055 176.287L434.78 215.805L528.554 309.096L558.357 338.68C564.086 344.353 569.916 350.011 575.509 355.816C577.878 358.274 579.761 360.886 580.517 364.295C581.435 368.585 580.605 373.063 578.211 376.739C576.289 379.658 564.039 391.423 560.757 394.691L520.517 434.791L423.465 531.581L391.616 563.323C386.618 568.308 381.713 573.335 376.656 578.322C371.944 582.969 367.979 585.32 361.826 581.006C357.063 577.666 358.123 571.656 361.002 567.403C364.833 561.747 369.11 556.298 373.17 550.775L396.358 518.914C417.756 489.409 439.747 457.786 462.024 429.125C451.907 433.733 440.097 438.084 429.656 442.286L375.097 464.466L317.094 488.072C306.169 492.518 295.189 497.068 284.172 501.277C282.037 501.99 280.234 502.861 277.964 502.208C269.574 499.794 268.038 490.131 275.287 485.168C278.169 483.195 280.831 481.841 283.725 480.154L298.751 471.303L354.166 438.884C379.532 423.538 405.657 408.787 431.148 393.51C426.331 393.583 420.937 393.082 416.076 392.786L391.733 391.344L312.796 386.843L205.844 380.696L175.535 378.955C169.716 378.639 163.929 378.335 158.11 377.961C152.344 377.59 147.496 375.338 147.218 368.739C147.096 366.174 148.022 363.67 149.783 361.8C151.4 360.085 153.649 359.205 155.947 359.027C165.397 358.294 175.093 357.823 184.547 357.267L245.16 353.816L431.275 343.131C424.041 339.724 413.478 332.931 406.328 328.689L364.809 304.264L303.336 268.045C294.576 262.878 285.908 258.059 276.934 252.711C268.789 248.661 268.54 237.324 277.612 234.866C282.63 233.507 296.533 240.345 301.533 242.39L336.47 256.641C377.957 273.51 420.155 291.171 461.796 307.466C456.53 300.991 450.528 292.158 445.526 285.247L416.366 245.036L388.023 206.085C378.65 193.337 367.698 179.624 359.434 166.039C355.992 160.38 360.457 154.727 366.728 153.167Z"/></svg>