<svg width="434" height="430" viewBox="0 0 434 430" fill="none" xmlns="http://www.w3.org/2000/svg">
<path d="M219.521 0.0139658C221.055 -0.0270342 223.437 -0.0430378 224.663 0.950962C232.541 7.33296 240.712 15.982 247.848 23.134L287.573 62.652L381.347 155.943L411.15 185.527C416.879 191.2 422.709 196.858 428.302 202.663C430.671 205.121 432.554 207.733 433.31 211.142C434.228 215.432 433.398 219.91 431.004 223.586C429.082 226.505 416.832 238.27 413.55 241.538L373.31 281.638L276.258 378.428L244.409 410.17C239.411 415.155 234.506 420.182 229.449 425.169C224.737 429.816 220.772 432.167 214.619 427.853C209.856 424.513 210.916 418.503 213.795 414.25C217.626 408.594 221.903 403.145 225.963 397.622L249.151 365.761C270.549 336.256 292.54 304.633 314.817 275.972C304.7 280.58 292.89 284.931 282.449 289.133L227.89 311.313L169.887 334.919C158.962 339.365 147.982 343.915 136.965 348.124C134.83 348.837 133.027 349.708 130.757 349.055C122.367 346.641 120.831 336.978 128.08 332.015C130.962 330.042 133.624 328.688 136.518 327.001L151.544 318.15L206.959 285.731C232.325 270.385 258.45 255.634 283.941 240.357C279.124 240.43 273.73 239.929 268.869 239.633L244.526 238.191L165.589 233.69L58.6367 227.543L28.3277 225.802C22.5087 225.486 16.7217 225.182 10.9027 224.808C5.13669 224.437 0.288694 222.185 0.0106941 215.586C-0.111306 213.021 0.814696 210.517 2.5757 208.647C4.1927 206.932 6.4417 206.052 8.7397 205.874C18.1897 205.141 27.8857 204.67 37.3397 204.114L97.9527 200.663L284.068 189.978C276.834 186.571 266.271 179.778 259.121 175.536L217.602 151.111L156.129 114.892C147.369 109.725 138.701 104.906 129.727 99.558C121.582 95.508 121.333 84.171 130.405 81.713C135.423 80.354 149.326 87.192 154.326 89.237L189.263 103.488C230.75 120.357 272.948 138.018 314.589 154.313C309.323 147.838 303.321 139.005 298.319 132.094L269.159 91.883L240.816 52.932C231.443 40.184 220.491 26.471 212.227 12.886C208.785 7.22696 213.25 1.57397 219.521 0.0139658Z" fill="#009966"/>
</svg>
